<svg width="20" height="20" viewBox="0 0 20 20" fill="none" xmlns="http://www.w3.org/2000/svg">
<path d="M10.4987 13.3333L7.83277 6.66667H6.1661L4.49943 10.8333L4.49862 10.835L3.49947 13.3333H5.29452L5.62777 12.5H8.36949L8.70283 13.3333H10.4987ZM6.29366 10.8333L6.99943 9.07092L7.70368 10.8333H6.29366ZM14.167 6.66667H15.8337V13.3333H13.3337C11.9529 13.3333 10.8337 12.2141 10.8337 10.8333C10.8337 9.45258 11.9529 8.33333 13.3337 8.33333H14.167V6.66667ZM13.3337 10C12.8735 10 12.5003 10.3732 12.5003 10.8333C12.5003 11.2935 12.8735 11.6667 13.3337 11.6667H14.167V10H13.3337ZM17.5003 2.5H2.50033C2.04012 2.5 1.66699 2.87312 1.66699 3.33333V16.6667C1.66699 17.1268 2.04012 17.5 2.50033 17.5H17.5003C17.9605 17.5 18.3337 17.1268 18.3337 16.6667V3.33333C18.3337 2.87312 17.9605 2.5 17.5003 2.5ZM3.33366 15.8333V4.16667H16.667V15.8333H3.33366Z" fill="white"/>
</svg>
