<svg width="20" height="20" viewBox="0 0 20 20" fill="none" xmlns="http://www.w3.org/2000/svg">
<path d="M1.66699 16.6667H18.3337V18.3334H1.66699V16.6667ZM3.33366 10.0001H5.00033V15.8334H3.33366V10.0001ZM7.50033 10.0001H9.16699V15.8334H7.50033V10.0001ZM10.8337 10.0001H12.5003V15.8334H10.8337V10.0001ZM15.0003 10.0001H16.667V15.8334H15.0003V10.0001ZM1.66699 5.83341L10.0003 1.66675L18.3337 5.83341V9.16675H1.66699V5.83341ZM3.33366 6.86347V7.50008H16.667V6.86347L10.0003 3.53014L3.33366 6.86347ZM10.0003 6.66675C9.54008 6.66675 9.16699 6.29365 9.16699 5.83341C9.16699 5.37318 9.54008 5.00008 10.0003 5.00008C10.4606 5.00008 10.8337 5.37318 10.8337 5.83341C10.8337 6.29365 10.4606 6.66675 10.0003 6.66675Z" fill="white"/>
</svg>
