<svg width="20" height="20" viewBox="0 0 20 20" fill="none" xmlns="http://www.w3.org/2000/svg">
<path d="M15.8333 17.5H4.16665C3.70641 17.5 3.33331 17.1269 3.33331 16.6667V9.16666H0.833313L9.4394 1.34291C9.75723 1.05395 10.2427 1.05395 10.5606 1.34291L19.1666 9.16666H16.6666V16.6667C16.6666 17.1269 16.2936 17.5 15.8333 17.5ZM4.99998 15.8333H15V7.6312L9.99998 3.08574L4.99998 7.6312V15.8333ZM9.99998 12.5C8.8494 12.5 7.91665 11.5672 7.91665 10.4167C7.91665 9.26608 8.8494 8.33331 9.99998 8.33331C11.1506 8.33331 12.0833 9.26608 12.0833 10.4167C12.0833 11.5672 11.1506 12.5 9.99998 12.5Z" fill="black"/>
</svg>
