<svg width="20" height="20" viewBox="0 0 20 20" fill="none" xmlns="http://www.w3.org/2000/svg">
<path d="M15.8334 17.5H4.16671C3.70647 17.5 3.33337 17.1269 3.33337 16.6667V9.16666H0.833374L9.43946 1.34291C9.75729 1.05395 10.2428 1.05395 10.5606 1.34291L19.1667 9.16666H16.6667V16.6667C16.6667 17.1269 16.2936 17.5 15.8334 17.5ZM5.00004 15.8333H15V7.6312L10 3.08574L5.00004 7.6312V15.8333ZM10 12.5C8.84946 12.5 7.91671 11.5672 7.91671 10.4167C7.91671 9.26608 8.84946 8.33331 10 8.33331C11.1506 8.33331 12.0834 9.26608 12.0834 10.4167C12.0834 11.5672 11.1506 12.5 10 12.5Z" fill="black"/>
</svg>
