<svg width="20" height="20" viewBox="0 0 20 20" fill="none" xmlns="http://www.w3.org/2000/svg">
<path d="M1.66699 3.32783C1.66699 2.87063 2.04642 2.5 2.49349 2.5H17.5072C17.9637 2.5 18.3337 2.87079 18.3337 3.32783V16.6722C18.3337 17.1293 17.9542 17.5 17.5072 17.5H2.49349C2.03703 17.5 1.66699 17.1292 1.66699 16.6722V3.32783ZM3.33366 4.16667V15.8333H16.667V4.16667H3.33366ZM8.85191 7.01216L12.9177 9.72267C13.0708 9.82475 13.1122 10.0317 13.0101 10.1849C12.9857 10.2215 12.9542 10.2529 12.9177 10.2773L8.85191 12.9878C8.69874 13.09 8.49174 13.0486 8.38966 12.8954C8.35316 12.8407 8.33366 12.7763 8.33366 12.7105V7.28951C8.33366 7.10541 8.48291 6.95617 8.66699 6.95617C8.73282 6.95617 8.79716 6.97565 8.85191 7.01216Z" fill="white"/>
</svg>
