<svg width="20" height="20" viewBox="0 0 20 20" fill="none" xmlns="http://www.w3.org/2000/svg">
<path d="M1.66665 7.49997H4.16665V17.5H1.66665C1.20641 17.5 0.833313 17.1269 0.833313 16.6667V8.33331C0.833313 7.87307 1.20641 7.49997 1.66665 7.49997ZM6.07739 6.42257L11.4111 1.08884C11.5577 0.942216 11.7899 0.925724 11.9557 1.05013L12.6662 1.583C13.0701 1.88593 13.2521 2.40211 13.1276 2.89138L12.1665 6.66664H17.5C18.4205 6.66664 19.1666 7.41283 19.1666 8.33331V10.0869C19.1666 10.3047 19.124 10.5202 19.0411 10.7215L16.4625 16.9839C16.3339 17.2962 16.0296 17.5 15.6919 17.5H6.66665C6.20641 17.5 5.83331 17.1269 5.83331 16.6667V7.01182C5.83331 6.79081 5.92111 6.57885 6.07739 6.42257Z" fill="white"/>
</svg>
