<svg width="20" height="20" viewBox="0 0 20 20" fill="none" xmlns="http://www.w3.org/2000/svg">
<path d="M3.33301 18.3335C3.33301 14.6516 6.31777 11.6668 9.99967 11.6668C13.6816 11.6668 16.6663 14.6516 16.6663 18.3335H14.9997C14.9997 15.5721 12.7611 13.3335 9.99967 13.3335C7.23825 13.3335 4.99967 15.5721 4.99967 18.3335H3.33301ZM9.99967 10.8335C7.23717 10.8335 4.99967 8.596 4.99967 5.8335C4.99967 3.071 7.23717 0.833496 9.99967 0.833496C12.7622 0.833496 14.9997 3.071 14.9997 5.8335C14.9997 8.596 12.7622 10.8335 9.99967 10.8335ZM9.99967 9.16683C11.8413 9.16683 13.333 7.67516 13.333 5.8335C13.333 3.99183 11.8413 2.50016 9.99967 2.50016C8.15801 2.50016 6.66634 3.99183 6.66634 5.8335C6.66634 7.67516 8.15801 9.16683 9.99967 9.16683Z" fill="white"/>
</svg>
