<svg width="25" height="24" viewBox="0 0 25 24" fill="none" xmlns="http://www.w3.org/2000/svg">
<path d="M12.2998 20H20.2998V22H12.2998C6.77695 22 2.2998 17.5228 2.2998 12C2.2998 6.47715 6.77695 2 12.2998 2C17.8226 2 22.2998 6.47715 22.2998 12C22.2998 14.2512 21.5559 16.3287 20.3005 18H17.5914C19.2523 16.5341 20.2998 14.3894 20.2998 12C20.2998 7.58172 16.7181 4 12.2998 4C7.88152 4 4.2998 7.58172 4.2998 12C4.2998 16.4183 7.88152 20 12.2998 20ZM12.2998 10C11.1952 10 10.2998 9.10457 10.2998 8C10.2998 6.89543 11.1952 6 12.2998 6C13.4044 6 14.2998 6.89543 14.2998 8C14.2998 9.10457 13.4044 10 12.2998 10ZM8.2998 14C7.19523 14 6.2998 13.1046 6.2998 12C6.2998 10.8954 7.19523 10 8.2998 10C9.40437 10 10.2998 10.8954 10.2998 12C10.2998 13.1046 9.40437 14 8.2998 14ZM16.2998 14C15.1952 14 14.2998 13.1046 14.2998 12C14.2998 10.8954 15.1952 10 16.2998 10C17.4044 10 18.2998 10.8954 18.2998 12C18.2998 13.1046 17.4044 14 16.2998 14ZM12.2998 18C11.1952 18 10.2998 17.1046 10.2998 16C10.2998 14.8954 11.1952 14 12.2998 14C13.4044 14 14.2998 14.8954 14.2998 16C14.2998 17.1046 13.4044 18 12.2998 18Z" fill="#222222"/>
</svg>
