<svg width="25" height="24" viewBox="0 0 25 24" fill="none" xmlns="http://www.w3.org/2000/svg">
<path d="M1.1001 22.0001C1.1001 17.5818 4.68182 14.0001 9.1001 14.0001C13.5184 14.0001 17.1001 17.5818 17.1001 22.0001H15.1001C15.1001 18.6864 12.4138 16.0001 9.1001 16.0001C5.78639 16.0001 3.1001 18.6864 3.1001 22.0001H1.1001ZM9.1001 13.0001C5.7851 13.0001 3.1001 10.3151 3.1001 7.00014C3.1001 3.68514 5.7851 1.00014 9.1001 1.00014C12.4151 1.00014 15.1001 3.68514 15.1001 7.00014C15.1001 10.3151 12.4151 13.0001 9.1001 13.0001ZM9.1001 11.0001C11.3101 11.0001 13.1001 9.21014 13.1001 7.00014C13.1001 4.79014 11.3101 3.00014 9.1001 3.00014C6.8901 3.00014 5.1001 4.79014 5.1001 7.00014C5.1001 9.21014 6.8901 11.0001 9.1001 11.0001ZM21.6477 0.783691C22.5774 2.65663 23.1001 4.76735 23.1001 7.00014C23.1001 9.23293 22.5774 11.3436 21.6477 13.2166L20.0028 12.0202C20.7072 10.4929 21.1001 8.79243 21.1001 7.00014C21.1001 5.20784 20.7072 3.50732 20.0028 1.98002L21.6477 0.783691ZM18.3464 3.18463C18.8321 4.36038 19.1001 5.64896 19.1001 7.00014C19.1001 8.35131 18.8321 9.63989 18.3464 10.8156L16.6695 9.59607C16.9486 8.78206 17.1001 7.90879 17.1001 7.00014C17.1001 6.09148 16.9486 5.21821 16.6695 4.4042L18.3464 3.18463Z" fill="#222222"/>
</svg>
