<svg width="25" height="24" viewBox="0 0 25 24" fill="none" xmlns="http://www.w3.org/2000/svg">
<path d="M14.6001 22.5L11.8001 19H6.6001C6.04782 19 5.6001 18.5523 5.6001 18V7.10256C5.6001 6.55028 6.04782 6.10256 6.6001 6.10256H22.6001C23.1524 6.10256 23.6001 6.55028 23.6001 7.10256V18C23.6001 18.5523 23.1524 19 22.6001 19H17.4001L14.6001 22.5ZM16.4388 17H21.6001V8.10256H7.6001V17H11.8001H12.7614L14.6001 19.2984L16.4388 17ZM2.6001 2H19.6001V4H3.6001V15H1.6001V3C1.6001 2.44772 2.04782 2 2.6001 2Z" fill="#222222"/>
</svg>
