<svg width="25" height="24" viewBox="0 0 25 24" fill="none" xmlns="http://www.w3.org/2000/svg">
<path d="M13.6001 6V4H5.6001V2H15.6001V6H16.6001C17.1524 6 17.6001 6.44772 17.6001 7V9.2L22.8134 5.55071C23.0396 5.39235 23.3514 5.44737 23.5097 5.6736C23.5685 5.75764 23.6001 5.85774 23.6001 5.96033V18.0397C23.6001 18.3158 23.3762 18.5397 23.1001 18.5397C22.9975 18.5397 22.8974 18.5081 22.8134 18.4493L17.6001 14.8V19C17.6001 19.5523 17.1524 20 16.6001 20H2.6001C2.04782 20 1.6001 19.5523 1.6001 19V7C1.6001 6.44772 2.04782 6 2.6001 6H13.6001ZM15.6001 8H3.6001V18H15.6001V8ZM17.6001 12.3587L21.6001 15.1587V8.84131L17.6001 11.6413V12.3587ZM5.6001 10H7.6001V12H5.6001V10Z" fill="#222222"/>
</svg>
