<svg width="167" height="28" viewBox="0 0 167 28" fill="none" xmlns="http://www.w3.org/2000/svg">
<path fill-rule="evenodd" clip-rule="evenodd" d="M122.785 24.1754V0C121.984 0.163743 121.113 0.292399 120.171 0.385967C119.229 0.456143 118.216 0.49123 117.133 0.49123C116.426 0.49123 115.696 0.456143 114.942 0.385967V1.12281C115.767 1.12281 116.32 1.38012 116.603 1.89474C116.909 2.38597 117.062 3.1462 117.062 4.17544V24.1754C117.062 25.1579 116.897 25.8246 116.567 26.1754C116.261 26.5263 115.72 26.7018 114.942 26.7018V27.4386C115.437 27.4152 116.167 27.3918 117.133 27.3684C118.122 27.3216 119.087 27.2982 120.03 27.2982C120.995 27.2982 121.937 27.3216 122.856 27.3684C123.774 27.3918 124.457 27.4152 124.905 27.4386V26.7018C124.128 26.7018 123.574 26.5263 123.244 26.1754C122.938 25.8246 122.785 25.1579 122.785 24.1754ZM160.747 8.77193C162.537 8.77193 164.021 9.50877 165.198 10.9825C166.399 12.4327 167 14.6784 167 17.7193C167 20.2456 166.623 22.269 165.87 23.7895C165.139 25.2866 164.15 26.3509 162.902 26.9825C161.677 27.614 160.323 27.9298 158.839 27.9298C157.968 27.9298 157.155 27.8246 156.402 27.614C155.987 27.4943 155.591 27.3179 155.213 27.0848C154.572 26.9025 153.92 26.8333 153.258 26.8772C152.551 26.9006 151.903 27.0175 151.315 27.2281C150.726 27.4152 150.255 27.6725 149.902 28L149.372 27.6842C149.489 27.3567 149.56 27.0292 149.584 26.7018C149.607 26.3743 149.619 26.0468 149.619 25.7193V4.21053C149.619 3.1579 149.466 2.38597 149.16 1.89474C148.877 1.38012 148.324 1.12281 147.499 1.12281V0.385967C148.253 0.456143 148.983 0.49123 149.69 0.49123C150.773 0.49123 151.786 0.456143 152.728 0.385967C153.67 0.292399 154.541 0.163743 155.342 0V11.9014C155.812 10.8973 156.495 10.1349 157.391 9.61404C158.357 9.05263 159.475 8.77193 160.747 8.77193ZM156.119 26.9474C155.844 26.8381 155.585 26.6968 155.342 26.5237V13.2167C155.447 12.4211 155.753 11.7816 156.26 11.2982C156.873 10.7135 157.544 10.4211 158.274 10.4211C158.839 10.4211 159.322 10.6667 159.723 11.1579C160.146 11.6257 160.464 12.4327 160.676 13.5789C160.912 14.7251 161.03 16.3158 161.03 18.3509C161.03 21.3216 160.735 23.5439 160.146 25.0175C159.581 26.4678 158.698 27.193 157.497 27.193C157.049 27.193 156.59 27.1111 156.119 26.9474ZM144.487 8.8772V23.614C144.487 24.6667 144.64 25.4503 144.947 25.9649C145.276 26.4561 145.83 26.7018 146.607 26.7018V27.4386C145.877 27.3684 145.147 27.3333 144.417 27.3333C143.333 27.3333 142.32 27.3684 141.378 27.4386C140.46 27.5088 139.589 27.6374 138.764 27.8246V24.9825C138.199 26.0351 137.422 26.7953 136.433 27.2632C135.467 27.7076 134.36 27.9298 133.112 27.9298C132.076 27.9298 131.239 27.8012 130.604 27.5439C129.991 27.2866 129.52 26.9474 129.19 26.5263C128.814 26.1053 128.543 25.5439 128.378 24.8421C128.213 24.117 128.131 23.1696 128.131 22V13.0877C128.131 12.0351 127.978 11.2632 127.671 10.7719C127.365 10.2573 126.812 10 126.011 10V9.26316C126.765 9.33334 127.495 9.36843 128.201 9.36843C129.285 9.36843 130.297 9.33334 131.239 9.26316C132.182 9.1696 133.053 9.04094 133.854 8.8772V23.6842C133.854 24.2222 133.913 24.6784 134.03 25.0526C134.148 25.4269 134.348 25.7193 134.631 25.9298C134.914 26.1404 135.29 26.2456 135.761 26.2456C136.303 26.2456 136.798 26.1053 137.245 25.8246C137.693 25.5439 138.058 25.1579 138.34 24.6667C138.623 24.1521 138.764 23.579 138.764 22.9474V13.0877C138.764 12.0351 138.611 11.2632 138.305 10.7719C137.999 10.2573 137.445 10 136.645 10V9.26316C137.398 9.33334 138.128 9.36843 138.835 9.36843C139.918 9.36843 140.931 9.33334 141.873 9.26316C142.815 9.1696 143.686 9.04094 144.487 8.8772ZM103.463 2.10535C105.018 2.10535 106.289 2.33927 107.278 2.8071C108.291 3.25155 109.186 3.77786 109.963 4.38605C110.434 4.73693 110.788 4.78371 111.023 4.5264C111.282 4.2457 111.459 3.60242 111.553 2.59658H112.366C112.319 3.50886 112.283 4.63166 112.26 5.965C112.236 7.29833 112.224 9.05272 112.224 11.2282H111.412C111.318 10.1287 111.165 9.16967 110.953 8.35096C110.764 7.53225 110.482 6.8071 110.105 6.17552C109.728 5.54395 109.186 4.98254 108.48 4.49131C107.938 4.04687 107.326 3.70769 106.643 3.47377C105.983 3.21646 105.3 3.08781 104.594 3.08781C103.298 3.08781 102.203 3.45038 101.308 4.17552C100.437 4.87728 99.7302 5.81295 99.1885 6.98254C98.6704 8.12874 98.2935 9.41529 98.058 10.8422C97.8461 12.2457 97.7401 13.6609 97.7401 15.0878C97.7401 16.5381 97.8578 17.9767 98.0933 19.4036C98.3289 20.8071 98.7057 22.082 99.2238 23.2282C99.7655 24.3744 100.484 25.2983 101.379 26.0001C102.274 26.6784 103.369 27.0176 104.664 27.0176C105.347 27.0176 106.018 26.9007 106.678 26.6667C107.361 26.4328 107.973 26.0937 108.515 25.6492C109.551 24.9475 110.246 24.0352 110.599 22.9124C110.976 21.7662 111.247 20.2808 111.412 18.4562H112.224C112.224 20.7252 112.236 22.5615 112.26 23.965C112.283 25.3451 112.319 26.503 112.366 27.4387H111.553C111.459 26.4328 111.294 25.8013 111.059 25.5439C110.847 25.2866 110.482 25.3217 109.963 25.6492C109.092 26.2574 108.162 26.7954 107.173 27.2632C106.207 27.7077 104.959 27.9299 103.428 27.9299C100.861 27.9299 98.5997 27.427 96.6449 26.4211C94.7137 25.4153 93.2064 23.965 92.123 22.0703C91.0632 20.1755 90.5333 17.8948 90.5333 15.2282C90.5333 12.6083 91.0867 10.3159 92.1937 8.35096C93.3006 6.38605 94.8197 4.85389 96.7509 3.75447C98.7057 2.65506 100.943 2.10535 103.463 2.10535ZM83.4717 9.12273C82.7181 8.88881 81.8231 8.77185 80.7868 8.77185C79.6799 8.77185 78.6436 8.97068 77.678 9.36834C76.7124 9.74261 75.9234 10.304 75.3111 11.0526C74.7223 11.7777 74.4279 12.6666 74.4279 13.7192C74.4279 14.6315 74.6281 15.4502 75.0284 16.1754C75.4524 16.9005 75.9823 17.5672 76.6182 18.1754C77.2776 18.7835 77.9842 19.4034 78.7378 20.035C79.7035 20.8537 80.516 21.614 81.1754 22.3157C81.8349 22.9941 82.1646 23.8479 82.1646 24.8771C82.1646 25.3917 82.0468 25.8128 81.8113 26.1403C81.5994 26.4678 81.3167 26.7134 80.9635 26.8771C80.6337 27.0175 80.2687 27.0876 79.8683 27.0876C78.9733 27.0876 78.1961 26.8186 77.5367 26.2806C76.8772 25.7192 76.3473 24.959 75.947 23.9999C75.5701 23.0409 75.3111 21.9297 75.1698 20.6666H74.4279C74.4279 22.4444 74.4161 23.8713 74.3926 24.9473C74.369 26.0233 74.3337 26.9356 74.2866 27.6841H75.0284C75.1227 27.3099 75.2522 27.0058 75.417 26.7718C75.5819 26.5379 75.7821 26.4327 76.0176 26.4561C76.2767 26.5028 76.5358 26.5847 76.7948 26.7017C77.0774 26.8186 77.3954 26.959 77.7487 27.1227C78.1255 27.3566 78.5965 27.5438 79.1618 27.6841C79.7506 27.8479 80.4335 27.9297 81.2108 27.9297C82.4825 27.9297 83.6366 27.7075 84.6728 27.2631C85.7091 26.8186 86.5452 26.1987 87.1811 25.4034C87.817 24.6081 88.1349 23.6841 88.1349 22.6315C88.1349 21.6958 87.9465 20.9005 87.5697 20.2455C87.2164 19.5672 86.7336 18.9473 86.1213 18.3859C85.5325 17.8011 84.8613 17.228 84.1076 16.6666C83.4246 16.1052 82.7416 15.5789 82.0586 15.0876C81.3992 14.5964 80.8575 14.0818 80.4335 13.5438C80.0096 13.0058 79.7977 12.3859 79.7977 11.6841C79.7977 11.0292 80.0096 10.5145 80.4335 10.1403C80.881 9.766 81.4227 9.57887 82.0586 9.57887C83.0478 9.57887 83.8485 9.85957 84.4609 10.421C85.0732 10.959 85.5325 11.649 85.8387 12.4911C86.1684 13.3333 86.3803 14.1871 86.4745 15.0526H87.2164C87.2164 13.4619 87.2282 12.1988 87.2517 11.2631C87.2753 10.304 87.3106 9.4853 87.3577 8.80694H86.6159C86.451 9.97653 85.9564 10.304 85.1321 9.78939C84.7788 9.57887 84.2254 9.35665 83.4717 9.12273ZM64.296 8.77185C65.3323 8.77185 66.2272 8.88881 66.9809 9.12273C67.7345 9.35665 68.288 9.57887 68.6413 9.78939C69.4656 10.304 69.9602 9.97653 70.125 8.80694H70.8669C70.8198 9.4853 70.7845 10.304 70.7609 11.2631C70.7374 12.1988 70.7256 13.4619 70.7256 15.0526H69.9837C69.8895 14.1871 69.6775 13.3333 69.3478 12.4911C69.0416 11.649 68.5824 10.959 67.97 10.421C67.3577 9.85957 66.5569 9.57887 65.5678 9.57887C64.9319 9.57887 64.3902 9.766 63.9427 10.1403C63.5188 10.5145 63.3068 11.0292 63.3068 11.6841C63.3068 12.3859 63.5188 13.0058 63.9427 13.5438C64.3666 14.0818 64.9083 14.5964 65.5678 15.0876C66.2508 15.5789 66.9338 16.1052 67.6168 16.6666C68.3704 17.228 69.0416 17.8011 69.6304 18.3859C70.2428 18.9473 70.7256 19.5672 71.0789 20.2455C71.4557 20.9005 71.6441 21.6958 71.6441 22.6315C71.6441 23.6841 71.3261 24.6081 70.6903 25.4034C70.0544 26.1987 69.2183 26.8186 68.182 27.2631C67.1457 27.7075 65.9917 27.9297 64.7199 27.9297C63.9427 27.9297 63.2597 27.8479 62.6709 27.6841C62.1057 27.5438 61.6346 27.3566 61.2578 27.1227C60.9045 26.959 60.5866 26.8186 60.304 26.7017C60.0449 26.5847 59.7858 26.5028 59.5268 26.4561C59.2913 26.4327 59.0911 26.5379 58.9262 26.7718C58.7613 27.0058 58.6318 27.3099 58.5376 27.6841H57.7957C57.8428 26.9356 57.8782 26.0233 57.9017 24.9473C57.9253 23.8713 57.937 22.4444 57.937 20.6666H58.6789C58.8202 21.9297 59.0793 23.0409 59.4561 23.9999C59.8565 24.959 60.3864 25.7192 61.0459 26.2806C61.7053 26.8186 62.4825 27.0876 63.3775 27.0876C63.7778 27.0876 64.1429 27.0175 64.4726 26.8771C64.8259 26.7134 65.1085 26.4678 65.3205 26.1403C65.556 25.8128 65.6738 25.3917 65.6738 24.8771C65.6738 23.8479 65.344 22.9941 64.6846 22.3157C64.0251 21.614 63.2126 20.8537 62.247 20.035C61.4933 19.4034 60.7868 18.7835 60.1273 18.1754C59.4914 17.5672 58.9615 16.9005 58.5376 16.1754C58.1372 15.4502 57.937 14.6315 57.937 13.7192C57.937 12.6666 58.2314 11.7777 58.8202 11.0526C59.4326 10.304 60.2215 9.74261 61.1872 9.36834C62.1528 8.97068 63.1891 8.77185 64.296 8.77185ZM53.4538 10.5964C52.2762 9.38004 50.6511 8.77185 48.5786 8.77185C46.9064 8.77185 45.3991 9.12273 44.0567 9.82448C42.7142 10.5028 41.6544 11.5555 40.8772 12.9824C40.1 14.4093 39.7114 16.2338 39.7114 18.4561C39.7114 20.7017 40.0647 22.5262 40.7712 23.9297C41.5013 25.3099 42.4787 26.3274 43.7034 26.9824C44.9281 27.614 46.3176 27.9297 47.872 27.9297C49.238 27.9297 50.4039 27.649 51.3695 27.0876C52.3351 26.5028 53.1241 25.7777 53.7364 24.9122C54.3723 24.0233 54.8198 23.1227 55.0788 22.2104L54.4783 21.9999C53.9837 22.7251 53.4656 23.2748 52.9239 23.649C52.3822 24.0233 51.8641 24.2689 51.3695 24.3859C50.8749 24.5028 50.4274 24.5613 50.027 24.5613C49.3205 24.5613 48.6375 24.3625 47.978 23.9648C47.3186 23.5672 46.7651 22.8888 46.3176 21.9297C45.8937 20.9707 45.6817 19.6841 45.6817 18.0701V17.228C45.6817 17.0104 45.6959 16.7999 45.7242 16.5964H55.2202C55.2202 13.8128 54.6314 11.8128 53.4538 10.5964ZM50.4156 15.9297H45.6239C45.7501 13.6496 46.052 12.0239 46.5296 11.0526C47.0242 10.0467 47.6248 9.54378 48.3313 9.54378C48.8494 9.54378 49.2616 9.83618 49.5678 10.421C49.8975 11.0058 50.133 11.7894 50.2743 12.7719C50.4156 13.7309 50.4627 14.7835 50.4156 15.9297ZM35.5104 8.77185C36.3111 8.77185 36.947 8.94729 37.4181 9.29817C37.8891 9.62565 38.2306 10.0584 38.4426 10.5964C38.6545 11.111 38.7605 11.6257 38.7605 12.1403C38.7605 13.0993 38.4779 13.8713 37.9126 14.4561C37.371 15.0409 36.6526 15.3333 35.7577 15.3333C34.8156 15.3333 34.0973 15.1227 33.6027 14.7017C33.1081 14.2572 32.8608 13.6724 32.8608 12.9473C32.8608 12.2221 33.0139 11.6257 33.3201 11.1578C33.6498 10.69 34.0502 10.2923 34.5212 9.96483C34.1679 9.91805 33.8264 9.96483 33.4967 10.1052C33.1199 10.1988 32.7666 10.3742 32.4369 10.6315C32.1072 10.8888 31.8245 11.1929 31.589 11.5438C31.3535 11.8947 31.1651 12.2806 31.0238 12.7017C30.906 13.0993 30.8471 13.5087 30.8471 13.9297V23.8245C30.8471 24.9473 31.0944 25.7075 31.589 26.1052C32.1072 26.5028 32.9197 26.7017 34.0266 26.7017V27.4385C33.4849 27.4151 32.6842 27.3917 31.6244 27.3683C30.5645 27.3216 29.4694 27.2982 28.3389 27.2982C27.3262 27.2982 26.3017 27.3216 25.2654 27.3683C24.2527 27.3917 23.499 27.4151 23.0044 27.4385V26.7017C23.7817 26.7017 24.3233 26.5262 24.6295 26.1754C24.9592 25.8245 25.1241 25.1578 25.1241 24.1754V13.0876C25.1241 12.035 24.971 11.2631 24.6648 10.7719C24.3587 10.2572 23.8052 9.99992 23.0044 9.99992V9.26308C23.7581 9.33325 24.4882 9.36834 25.1947 9.36834C26.2546 9.36834 27.2555 9.33325 28.1976 9.26308C29.1632 9.16951 30.0464 9.04086 30.8471 8.87711V11.7543C31.1298 11.1461 31.4948 10.6198 31.9423 10.1754C32.4133 9.73092 32.9432 9.39173 33.532 9.15781C34.1444 8.90051 34.8038 8.77185 35.5104 8.77185ZM2.54358 2.66661C1.48375 2.64322 0.635895 2.61983 0 2.59644V3.29819C0.730101 3.32158 1.27179 3.41515 1.62506 3.57889C2.00189 3.71924 2.24918 3.99994 2.36694 4.421C2.50825 4.81866 2.57891 5.45023 2.57891 6.31573V23.7192C2.57891 24.5613 2.50825 25.1929 2.36694 25.614C2.24918 26.035 2.00189 26.3157 1.62506 26.4561C1.27179 26.5964 0.730101 26.69 0 26.7368V27.4385C0.871411 27.4151 1.81348 27.3918 2.8262 27.3684C3.86247 27.345 4.91052 27.3333 5.97034 27.3333C7.31279 27.3333 8.59635 27.345 9.82104 27.3684C11.0457 27.3918 12.0467 27.4151 12.8239 27.4385V26.6666C11.7641 26.6432 10.9515 26.5613 10.3863 26.421C9.82104 26.2806 9.44421 25.9882 9.2558 25.5438C9.06739 25.076 8.97318 24.3742 8.97318 23.4385V17.4035H10.5629C12.7297 17.4035 14.5196 17.1578 15.9327 16.6666C17.3693 16.1754 18.488 15.5438 19.2888 14.7719C20.1131 13.9766 20.6901 13.1228 21.0199 12.2105C21.3731 11.2748 21.5498 10.3859 21.5498 9.5438C21.5498 7.50871 20.7019 5.8479 19.0062 4.56135C17.334 3.2748 14.7787 2.63152 11.3401 2.63152C10.8926 2.63152 10.1272 2.64322 9.04383 2.66661C7.98401 2.69 6.87708 2.7017 5.72305 2.7017C4.66323 2.7017 3.6034 2.69 2.54358 2.66661ZM8.97318 16.7017V6.31573C8.97318 5.09936 9.09094 4.29234 9.32646 3.89468C9.58552 3.49702 10.1508 3.29819 11.0222 3.29819C12.4353 3.29819 13.4362 3.8479 14.025 4.94731C14.6138 6.04673 14.9082 7.70754 14.9082 9.92977C14.9082 11.1228 14.7787 12.2339 14.5196 13.2631C14.2841 14.2923 13.8248 15.1227 13.1418 15.7543C12.4824 16.3859 11.505 16.7017 10.2096 16.7017H8.97318Z" fill="white"/>
</svg>
