<svg width="25" height="24" viewBox="0 0 25 24" fill="none" xmlns="http://www.w3.org/2000/svg">
<path d="M12.5 23.7279L6.13604 17.364C2.62132 13.8492 2.62132 8.15076 6.13604 4.63604C9.65076 1.12132 15.3492 1.12132 18.864 4.63604C22.3787 8.15076 22.3787 13.8492 18.864 17.364L12.5 23.7279ZM17.4497 15.9497C20.1834 13.2161 20.1834 8.78392 17.4497 6.05025C14.7161 3.31658 10.2839 3.31658 7.55025 6.05025C4.81658 8.78392 4.81658 13.2161 7.55025 15.9497L12.5 20.8995L17.4497 15.9497ZM12.5 13C11.3954 13 10.5 12.1046 10.5 11C10.5 9.89543 11.3954 9 12.5 9C13.6046 9 14.5 9.89543 14.5 11C14.5 12.1046 13.6046 13 12.5 13Z" fill="#004FAC"/>
</svg>
