<svg width="20" height="20" viewBox="0 0 20 20" fill="none" xmlns="http://www.w3.org/2000/svg">
<path d="M2.08366 5.83333C2.08366 7.67428 3.57604 9.16667 5.41699 9.16667C7.25794 9.16667 8.75033 7.67428 8.75033 5.83333C8.75033 3.99238 7.25794 2.5 5.41699 2.5C3.57604 2.5 2.08366 3.99238 2.08366 5.83333ZM1.66699 17.5V13.75C1.66699 11.6789 3.34593 10 5.41699 10C7.48806 10 9.16699 11.6789 9.16699 13.75V17.5H1.66699ZM14.5837 9.16667C12.7427 9.16667 11.2503 7.67428 11.2503 5.83333C11.2503 3.99238 12.7427 2.5 14.5837 2.5C16.4246 2.5 17.917 3.99238 17.917 5.83333C17.917 7.67428 16.4246 9.16667 14.5837 9.16667ZM10.8337 17.5V13.75C10.8337 11.6789 12.5126 10 14.5837 10C16.6547 10 18.3337 11.6789 18.3337 13.75V17.5H10.8337Z" fill="#999999"/>
</svg>
