<svg width="25" height="25" viewBox="0 0 25 25" fill="none" xmlns="http://www.w3.org/2000/svg">
<path d="M18.531 16.9804L22.8137 21.2631L21.3995 22.6773L17.1168 18.3946C15.5769 19.6266 13.624 20.3636 11.5 20.3636C6.532 20.3636 2.5 16.3316 2.5 11.3636C2.5 6.39565 6.532 2.36365 11.5 2.36365C16.468 2.36365 20.5 6.39565 20.5 11.3636C20.5 13.4876 19.763 15.4405 18.531 16.9804ZM16.5247 16.2384C17.7475 14.9782 18.5 13.2592 18.5 11.3636C18.5 7.49615 15.3675 4.36365 11.5 4.36365C7.6325 4.36365 4.5 7.49615 4.5 11.3636C4.5 15.2311 7.6325 18.3636 11.5 18.3636C13.3956 18.3636 15.1146 17.6111 16.3748 16.3883L16.5247 16.2384Z" fill="#004FAC"/>
</svg>
