<svg width="18" height="19" viewBox="0 0 18 19" fill="none" xmlns="http://www.w3.org/2000/svg">
<path d="M14.6567 12.3282L13.2425 10.914L14.6567 9.49982C16.2188 7.93772 16.2188 5.40506 14.6567 3.84296C13.0946 2.28087 10.5619 2.28087 8.9998 3.84296L7.5856 5.25718L6.17139 3.84296L7.5856 2.42875C9.9287 0.0855992 13.7277 0.0855992 16.0709 2.42875C18.414 4.7719 18.414 8.57092 16.0709 10.914L14.6567 12.3282ZM11.8282 15.1567L10.414 16.5709C8.0709 18.914 4.27189 18.914 1.92875 16.5709C-0.414401 14.2277 -0.414401 10.4287 1.92875 8.08562L3.34296 6.67139L4.75717 8.08562L3.34296 9.49982C1.78086 11.0619 1.78086 13.5946 3.34296 15.1567C4.90506 16.7187 7.4377 16.7187 8.9998 15.1567L10.414 13.7424L11.8282 15.1567ZM11.8282 5.25718L13.2425 6.67139L6.17139 13.7424L4.75717 12.3282L11.8282 5.25718Z" fill="#777777"/>
</svg>
